<svg  width="136" height="128" viewBox="0 0 136 128" fill="none" xmlns="http://www.w3.org/2000/svg">
<path d="M25.9694 21.8655C53.1213 13.4907 35.1843 1.93854 30.8962 -1H136C135.453 41.4252 135.726 126 135.726 126C135.726 126 128.949 116.865 119.578 107.072L113.115 100.655C103.462 91.5914 92.3358 83.5748 83.1744 83.5748C52.7386 83.5748 64.2885 108.369 42.9393 102.859C21.8868 97.4258 70.0364 51.8937 30.8962 49.1388C-8.24407 46.3839 -7.97035 32.3341 25.9694 21.8655Z" fill="#1E1E1E"/>
<path d="M113.115 100.655C103.462 91.5914 92.3358 83.5748 83.1744 83.5748C52.7386 83.5748 64.2885 108.369 42.9393 102.859C21.8868 97.4258 70.0364 51.8937 30.8962 49.1388C-8.24407 46.3839 -7.97035 32.3341 25.9694 21.8655C53.1213 13.4907 35.1843 1.93854 30.8962 -1H136C135.453 41.4252 135.726 126 135.726 126C135.726 126 128.949 116.865 119.578 107.072M113.115 100.655C115.364 102.767 117.532 104.935 119.578 107.072M113.115 100.655L119.578 107.072" stroke="#1E1E1E"/>
</svg>
